<?xml version="1.0" encoding="utf-8"?>
<!-- Generator: Adobe Illustrator 16.0.0, SVG Export Plug-In . SVG Version: 6.00 Build 0)  -->
<!DOCTYPE svg PUBLIC "-//W3C//DTD SVG 1.1//EN" "http://www.w3.org/Graphics/SVG/1.1/DTD/svg11.dtd">
<svg version="1.1" id="Layer_1" xmlns="http://www.w3.org/2000/svg" xmlns:xlink="http://www.w3.org/1999/xlink" x="0px" y="0px"
	 width="100%" height="100%" viewBox="0 0 768 128" enable-background="new 0 0 768 128" xml:space="preserve">
<g>
	<g>
		<path fill="#FFFFFF" d="M267.057,72.028c0.562-8.003,2.763-15.871,7.041-22.602c6.135-9.655,16.134-16.386,29.711-16.386
			c15.756,0,24.012,8.887,22.774,26.672c-0.607,8.635-3.245,17.396-8.176,24.368c-6.066,8.646-15.756,14.609-28.829,14.609
			C273.569,98.689,265.806,89.814,267.057,72.028z M303.534,78.76c2.649-5.206,3.911-12.315,4.358-18.669
			c0.734-10.538-1.101-15.114-6.559-15.114c-4.576,0-8.359,3.303-10.86,8.13c-2.923,5.584-4.208,12.946-4.621,18.921
			c-0.734,10.401,1.639,14.621,6.972,14.621C297.651,86.649,301.171,83.461,303.534,78.76z"/>
		<path fill="#FFFFFF" d="M375.663,35.207c0.161,3.166-0.527,9.266-1.388,12.568h-17.521l-11.272,66.786
			c-2.581,0.527-6.801,0.895-10.481,0.895c-2.798,0-5.825-0.253-7.809-0.895l12.924-66.786h-10.286
			c0.779-3.933,2.913-9.013,4.484-11.433c2.35-1.009,5.469-2.03,8.176-2.534l1.158-5.584c3.807-18.291,16.513-25.526,30.101-25.526
			c4.186,0,9.828,0.882,16.158,3.05c-0.344,5.08-2.959,13.325-5.597,18.153c-4.311,0-10.401-1.777-13.313-3.681l1.17-5.837
			c-0.62-0.264-1.251-0.39-1.881-0.39c-3.933,0-8.039,4.197-9.85,13.841l-1.41,7.373H375.663L375.663,35.207z"/>
		<path fill="#FFFFFF" d="M386.671,73.806c-0.527,7.614,2.225,10.159,7.798,10.159c7.133,0,16.811-2.406,22.866-5.458
			c-0.252,3.556-2.432,9.381-4.588,12.683c-5.067,3.693-13.348,7.5-23.117,7.5c-15.493,0-22.269-8.371-21.181-23.989
			c0.734-10.424,4.748-22.476,11.663-30.48c6.054-6.857,14.38-11.18,24.907-11.18c12.569,0,19.128,6.1,18.417,16.386
			c-0.734,10.16-8.44,20.824-36.649,22.728L386.671,73.806z M405.867,50.058c0.229-3.303-0.872-5.711-4.059-5.711
			c-3.556,0-7.042,2.798-9.335,6.353c-1.834,2.661-3.165,7.109-3.738,10.022C403.276,59.712,405.546,54.506,405.867,50.058z"/>
		<path fill="#FFFFFF" d="M468.433,72.028c0.574-8.003,2.776-15.871,7.063-22.602c6.124-9.655,16.123-16.386,29.724-16.386
			c15.732,0,23.989,8.887,22.751,26.672c-0.596,8.635-3.257,17.396-8.164,24.368c-6.077,8.646-15.779,14.609-28.852,14.609
			C474.946,98.689,467.193,89.814,468.433,72.028z M504.945,78.76c2.636-5.206,3.897-12.315,4.334-18.669
			c0.733-10.538-1.102-15.114-6.56-15.114c-4.563,0-8.372,3.303-10.848,8.13c-2.936,5.584-4.221,12.946-4.634,18.921
			c-0.732,10.401,1.651,14.621,6.973,14.621C499.051,86.649,502.56,83.461,504.945,78.76z"/>
		<path fill="#FFFFFF" d="M204.514,33.12c-9.403,0-15.962,5.057-20.332,12.889h-1.903l1.915-10.985
			c-2.237-0.768-4.622-1.182-7.042-1.182c-2.098,0-4.186,0.207-6.181,0.631L168.3,47.66l0.012-0.011l-2.007,9.645l-0.527,2.419
			h-0.011l-13.303,65.42c2.122,0.642,5.023,1.009,8.073,1.009c3.933,0,8.027-0.321,10.848-0.825l4.644-28.164
			c2.351,0.872,5.607,1.514,8.91,1.514c9.77,0,18.715-4.311,24.356-10.503c7.007-7.638,11.055-20.045,11.799-30.709
			C222.288,40.31,214.673,33.12,204.514,33.12z M202.667,59.334c-0.504,7.235-2.569,16.766-7.522,22.361
			c-2.901,3.279-6.823,4.954-12.281,4.954c-1.778,0-3.785-0.413-4.783-0.78l5.573-30.606c3.99-6.215,7.752-9.14,12.327-9.14
			C200.798,46.124,203.379,49.3,202.667,59.334z"/>
		<path fill="#FFFFFF" d="M272.514,33.934c-1.49-0.504-3.875-1.112-6.158-1.112c-9.908,0-15.01,7.316-17.717,15.148h-1.903
			l2.339-13.244c-2.236-0.757-4.621-1.032-7.029-1.032c-2.064,0-4.116,0.045-6.078,0.447l-4.92,23.611l0,0l-7.706,38.05
			c1.984,0.618,5.149,0.985,8.062,0.985c3.944,0,8.027-0.321,10.733-0.825l5.998-36.661c3.085-5.975,8.083-10.274,14.173-10.274
			c2.798,0,6.548,0.894,8.864,2.293c1.032-2.156,1.788-5.584,2.018-9.013C273.421,39.14,273.122,36.09,272.514,33.934z"/>
		<path fill="#FFFFFF" d="M473.891,33.934c-1.467-0.504-3.853-1.112-6.146-1.112c-9.907,0-14.999,7.316-17.705,15.148h-1.927
			l2.341-13.244c-2.202-0.757-4.61-1.032-7.019-1.032c-2.088,0-4.175,0.413-6.147,0.826l-4.495,22.258l0,0l-8.072,39.368
			c2.018,0.642,5.16,0.826,8.072,0.826c3.945,0,8.027-0.413,10.733-0.919l6.01-36.707c3.073-5.962,8.073-10.297,14.173-10.297
			c2.798,0,6.537,0.883,8.854,2.282c1.054-2.156,1.788-5.584,2.018-9.013C474.809,39.14,474.511,36.09,473.891,33.934z"/>
	</g>
	<g>
		<path fill="#F6D431" d="M552.465,20.345c3.303-1.651,11.031-3.303,15.733-3.303l-3.44,18.164h17.155
			c0.16,1.388,0.092,2.535-0.023,3.934c-0.206,2.924-0.688,6.227-1.353,8.635h-18.302l-4.726,27.556
			c-1.009,5.722-0.091,8.634,5.757,8.634c3.693,0,7.546-0.894,11.972-2.27c-0.251,3.67-2.477,9.885-5.114,13.073
			c-5.779,2.659-11.559,3.921-16.283,3.921c-11.927,0-16.443-6.078-15.732-16.122c0.413-6.353,3.989-22.981,6.995-34.792h-9.794
			c0.78-3.944,2.936-9.013,4.496-11.433c2.224-1.021,5.229-2.03,7.798-2.534L552.465,20.345z"/>
		<path fill="#F6D431" d="M595.972,73.806c-0.527,7.614,2.224,10.159,7.798,10.159c7.132,0,16.811-2.406,22.865-5.458
			c-0.252,3.556-2.43,9.381-4.587,12.683c-5.067,3.693-13.348,7.5-23.118,7.5c-15.504,0-22.269-8.371-21.191-23.989
			c0.734-10.424,4.771-22.476,11.675-30.48c6.054-6.857,14.379-11.18,24.906-11.18c12.568,0,19.127,6.1,18.416,16.386
			c-0.734,10.16-8.44,20.824-36.648,22.728L595.972,73.806z M615.168,50.058c0.229-3.303-0.871-5.711-4.037-5.711
			c-3.577,0-7.064,2.798-9.356,6.353c-1.835,2.661-3.165,7.109-3.739,10.022C612.576,59.712,614.848,54.506,615.168,50.058z"/>
		<path fill="#F6D431" d="M672.366,45.619c-1.009-0.39-2.499-0.642-3.762-0.642c-4.196,0-7.911,2.167-10.297,5.458
			c-4.196,5.722-6.124,14.735-6.56,21.089c-0.595,8.634,2.547,12.693,9.518,12.693c6.491,0,15.412-2.522,20.963-5.206
			c-0.275,3.692-2.707,9.519-5.092,12.705c-5.091,3.556-12.292,6.995-20.802,6.995c-16.902,0-24.241-9.402-23.187-24.391
			c0.78-11.18,4.588-22.097,11.742-29.975c6.33-6.857,15.526-11.295,26.191-11.295c7.614,0,13.944,2.282,19.036,5.584
			c-0.413,5.974-2.569,12.946-5.619,18.668c-3.945,0-10.573-1.399-13.577-3.807L672.366,45.619z"/>
		<path fill="#F6D431" d="M746.675,82.475c0,0,0-0.021,0-0.045c1.972-9.634,5.504-24.621,6.009-31.856
			c0.94-13.337-7.109-17.717-15.366-17.717c-9.014,0-14.771,5.32-18.715,10.217h-1.904c2.501-6.846,4.656-13.898,5.757-20.377
			l3.189-18.187c-2.249-0.643-5.391-1.101-7.546-1.101c-5.826,0-12.293,1.296-16.376,3.578c-1.881,1.651-3.898,8.647-4.082,11.066
			l8.716-0.883L690.164,96.03c2.109,0.618,5.022,0.895,8.073,0.895c3.943,0,8.026-0.391,10.848-0.895l7.315-40.767
			c2.799-4.06,7.753-9.265,12.431-9.265c4.083,0,5.504,3.176,5.183,7.878c-0.459,6.594-4.77,24.379-7.017,33.141
			c-0.23,3.027,2.751,9.402,5.022,11.673c2.774,0,7.155-0.505,11.146-1.262L746.675,82.475z"/>
	</g>
</g>
<g>
	<g>
		<g>
			<path fill="none" d="M64.993,46.508c-9.679,0.16-17.373,8.13-17.202,17.819c0.173,9.644,8.143,17.361,17.82,17.179
				c9.679-0.184,17.374-8.143,17.19-17.809C82.63,54.03,74.659,46.324,64.993,46.508z"/>
			<path fill="#F6D431" d="M65.302,1.59c-34.471,0-62.427,27.946-62.427,62.429c0,34.457,27.957,62.392,62.427,62.392
				c34.482,0,62.417-27.935,62.417-62.392C127.719,29.536,99.785,1.59,65.302,1.59z M65.911,98.774
				c-19.197,0.345-35.033-14.953-35.366-34.137C30.201,45.43,45.488,29.594,64.684,29.249c19.185-0.332,35.032,14.942,35.365,34.139
				C100.393,82.583,85.106,98.431,65.911,98.774z"/>
			<path fill="#231F20" d="M64.684,29.249C45.488,29.594,30.201,45.43,30.545,64.626c0.333,19.195,16.169,34.493,35.366,34.148
				c19.196-0.344,34.494-16.191,34.138-35.387C99.715,44.191,83.868,28.917,64.684,29.249z M65.612,81.506
				c-9.678,0.183-17.647-7.535-17.82-17.179c-0.171-9.689,7.523-17.659,17.202-17.819c9.666-0.184,17.637,7.522,17.809,17.189
				C82.985,73.363,75.291,81.322,65.612,81.506z"/>
		</g>
	</g>
	<path fill="#FFFFFF" d="M64.868,46.254c-9.679,0.161-17.373,8.131-17.202,17.82c0.173,9.644,8.143,17.361,17.82,17.179
		c9.679-0.184,17.374-8.143,17.19-17.81C82.505,53.777,74.534,46.07,64.868,46.254z"/>
</g>
</svg>
