<?xml version="1.0" encoding="utf-8"?>
<!-- Generator: Adobe Illustrator 16.0.0, SVG Export Plug-In . SVG Version: 6.00 Build 0)  -->
<!DOCTYPE svg PUBLIC "-//W3C//DTD SVG 1.1//EN" "http://www.w3.org/Graphics/SVG/1.1/DTD/svg11.dtd">
<svg version="1.1" id="Layer_1" xmlns="http://www.w3.org/2000/svg" xmlns:xlink="http://www.w3.org/1999/xlink" x="0px" y="0px"
	 width="100%" height="100%" viewBox="0 0 768 128" enable-background="new 0 0 768 128" xml:space="preserve">
<g>
	<g>
		<path fill="none" d="M63.483,45.905c-9.888,0.165-17.753,8.314-17.581,18.208c0.176,9.862,8.32,17.75,18.215,17.575
			c9.885-0.189,17.746-8.332,17.557-18.217C81.502,53.594,73.355,45.717,63.483,45.905z"/>
		<path fill="#F6D431" d="M63.792,0C28.571,0,0,28.561,0,63.801c0,35.223,28.571,63.777,63.792,63.777
			c35.241,0,63.794-28.555,63.794-63.777C127.586,28.561,99.032,0,63.792,0z M64.415,99.314
			c-19.612,0.351-35.797-15.276-36.141-34.881C27.924,44.8,43.549,28.626,63.16,28.271c19.611-0.344,35.809,15.271,36.146,34.882
			C99.662,82.777,84.04,98.956,64.415,99.314z"/>
		<path fill="#231F20" d="M63.16,28.272C43.549,28.626,27.924,44.8,28.274,64.418c0.344,19.619,16.529,35.246,36.141,34.896
			c19.625-0.358,35.248-16.537,34.892-36.162C98.969,43.543,82.771,27.925,63.16,28.272z M64.117,81.688
			c-9.895,0.177-18.04-7.713-18.215-17.573c-0.172-9.896,7.693-18.043,17.581-18.208c9.875-0.188,18.019,7.689,18.191,17.565
			C81.863,73.354,74.002,81.497,64.117,81.688z"/>
	</g>
</g>
<g>
	<g>
		<path d="M269.846,72.589c0.572-8.175,2.821-16.221,7.195-23.099c6.271-9.862,16.484-16.74,30.37-16.74
			c16.092,0,24.54,9.083,23.27,27.251c-0.617,8.824-3.32,17.776-8.36,24.915c-6.197,8.825-16.097,14.924-29.463,14.924
			C276.505,99.841,268.576,90.757,269.846,72.589z M307.128,79.467c2.707-5.32,3.995-12.588,4.448-19.076
			c0.753-10.77-1.126-15.442-6.706-15.442c-4.671,0-8.542,3.374-11.092,8.305c-2.995,5.709-4.3,13.236-4.727,19.335
			c-0.744,10.642,1.681,14.925,7.133,14.925C301.115,87.514,304.717,84.27,307.128,79.467z"/>
		<path d="M380.834,34.957c0.162,3.244-0.533,9.473-1.417,12.847h-17.909l-11.521,68.256c-2.632,0.521-6.941,0.91-10.705,0.91
			c-2.855,0-5.951-0.261-7.982-0.91l13.208-68.256h-10.511c0.8-4.023,2.979-9.214,4.579-11.68c2.409-1.038,5.596-2.076,8.356-2.595
			l1.18-5.71c3.901-18.687,16.876-26.083,30.762-26.083c4.283,0,10.06,0.908,16.522,3.114c-0.362,5.191-3.029,13.626-5.71,18.557
			c-4.412,0-10.644-1.817-13.622-3.764l1.196-5.969c-0.63-0.26-1.271-0.39-1.92-0.39c-4.022,0-8.215,4.282-10.072,14.145
			l-1.435,7.526h17.001V34.957z"/>
		<path d="M392.089,74.406c-0.545,7.785,2.259,10.382,7.97,10.382c7.268,0,17.172-2.466,23.358-5.581
			c-0.254,3.635-2.487,9.604-4.671,12.977c-5.194,3.764-13.643,7.657-23.635,7.657c-15.833,0-22.76-8.565-21.645-24.526
			c0.744-10.642,4.851-22.968,11.911-31.145c6.199-7.007,14.685-11.419,25.455-11.419c12.848,0,19.549,6.229,18.813,16.74
			c-0.727,10.382-8.626,21.282-37.44,23.229L392.089,74.406z M411.693,50.14c0.236-3.374-0.889-5.84-4.133-5.84
			c-3.634,0-7.207,2.855-9.537,6.489c-1.879,2.726-3.233,7.267-3.832,10.251C409.059,60.002,411.377,54.681,411.693,50.14z"/>
		<path d="M475.655,72.589c0.571-8.175,2.82-16.221,7.195-23.099c6.271-9.862,16.483-16.74,30.368-16.74
			c16.092,0,24.54,9.083,23.271,27.251c-0.617,8.824-3.32,17.776-8.36,24.915c-6.197,8.825-16.098,14.924-29.464,14.924
			C482.314,99.841,474.386,90.757,475.655,72.589z M512.938,79.467c2.707-5.32,3.995-12.588,4.448-19.076
			c0.753-10.77-1.125-15.442-6.706-15.442c-4.671,0-8.541,3.374-11.092,8.305c-2.995,5.709-4.3,13.236-4.727,19.335
			c-0.744,10.642,1.682,14.925,7.133,14.925C506.925,87.514,510.526,84.27,512.938,79.467z"/>
		<path d="M205.932,32.822c-9.603,0-16.315,5.178-20.771,13.178h-1.946l1.948-11.231c-2.281-0.779-4.72-1.204-7.185-1.204
			c-2.146,0-4.28,0.215-6.319,0.641l-2.731,13.478l0.015-0.005l-2.054,9.855L166.343,60h-0.003l-13.593,66.876
			c2.16,0.647,5.127,1.017,8.242,1.017c4.023,0,8.203-0.336,11.094-0.854l4.739-28.783c2.402,0.91,5.73,1.572,9.105,1.572
			c9.993,0,19.125-4.406,24.891-10.765c7.163-7.787,11.296-20.465,12.059-31.364C224.102,40.18,216.313,32.822,205.932,32.822z
			 M204.053,59.613c-0.518,7.396-2.625,17.129-7.696,22.839c-2.962,3.373-6.973,5.062-12.553,5.062c-1.816,0-3.866-0.39-4.876-0.779
			l5.691-31.273c4.078-6.358,7.921-9.344,12.592-9.344C202.142,46.116,204.77,49.361,204.053,59.613z"/>
		<path d="M275.422,33.659c-1.521-0.519-3.959-1.134-6.295-1.134c-10.122,0-15.329,7.476-18.098,15.476h-1.946l2.39-13.529
			c-2.282-0.779-4.72-1.055-7.186-1.055c-2.107,0-4.203,0.046-6.209,0.457L233.053,58h-0.001l-7.875,38.881
			c2.031,0.648,5.257,1.025,8.242,1.025c4.023,0,8.203-0.33,10.965-0.85l6.126-37.474c3.152-6.1,8.262-10.497,14.491-10.497
			c2.855,0,6.685,0.915,9.051,2.343c1.062-2.206,1.826-5.707,2.071-9.21C276.349,38.976,276.046,35.865,275.422,33.659z"/>
		<path d="M481.232,33.659c-1.521-0.519-3.96-1.134-6.296-1.134c-10.121,0-15.329,7.476-18.099,15.476h-1.946l2.391-13.529
			c-2.281-0.779-4.722-1.055-7.188-1.055c-2.13,0-4.25,0.418-6.275,0.837L439.218,57h-0.004l-8.229,40.247
			c2.03,0.647,5.259,0.843,8.242,0.843c4.022,0,8.202-0.422,10.965-0.941l6.126-37.519c3.15-6.099,8.262-10.52,14.49-10.52
			c2.854,0,6.686,0.903,9.052,2.331c1.062-2.206,1.824-5.712,2.07-9.216C482.158,38.981,481.856,35.865,481.232,33.659z"/>
	</g>
	<g>
		<path fill="#F6D431" d="M561.527,19.774c3.361-1.687,11.267-3.374,16.067-3.374l-3.503,18.557h17.52
			c0.159,1.427,0.078,2.595-0.021,4.023c-0.209,2.984-0.704,6.359-1.396,8.824h-18.688l-4.824,28.159
			c-1.057,5.84-0.098,8.825,5.872,8.825c3.764,0,7.721-0.91,12.231-2.336c-0.263,3.762-2.524,10.122-5.218,13.364
			c-5.899,2.727-11.83,4.023-16.632,4.023c-12.198,0-16.824-6.229-16.107-16.48c0.454-6.488,4.107-23.487,7.158-35.557h-9.991
			c0.799-4.023,2.979-9.214,4.58-11.68c2.278-1.038,5.336-2.076,7.967-2.595L561.527,19.774z"/>
		<path fill="#F6D431" d="M605.981,74.406c-0.546,7.785,2.259,10.382,7.969,10.382c7.268,0,17.173-2.466,23.358-5.581
			c-0.254,3.635-2.486,9.604-4.671,12.977c-5.193,3.764-13.642,7.657-23.635,7.657c-15.832,0-22.76-8.565-21.644-24.526
			c0.744-10.642,4.851-22.968,11.91-31.145c6.199-7.007,14.686-11.419,25.455-11.419c12.849,0,19.551,6.229,18.814,16.74
			c-0.727,10.382-8.626,21.282-37.441,23.229L605.981,74.406z M625.587,50.14c0.235-3.374-0.89-5.84-4.133-5.84
			c-3.634,0-7.208,2.855-9.538,6.489c-1.878,2.726-3.232,7.267-3.832,10.251C622.951,60.002,625.27,54.681,625.587,50.14z"/>
		<path fill="#F6D431" d="M684.04,45.598c-1.012-0.39-2.55-0.649-3.849-0.649c-4.282,0-8.07,2.206-10.513,5.58
			c-4.301,5.839-6.243,15.053-6.696,21.542c-0.617,8.824,2.596,12.977,9.732,12.977c6.619,0,15.754-2.594,21.396-5.318
			c-0.264,3.763-2.757,9.731-5.188,12.977c-5.187,3.633-12.568,7.138-21.264,7.138c-17.259,0-24.764-9.604-23.692-24.916
			c0.799-11.419,4.693-22.58,12.005-30.625c6.459-7.007,15.861-11.549,26.763-11.549c7.784,0,14.24,2.336,19.454,5.71
			c-0.426,6.099-2.611,13.236-5.745,19.076c-4.023,0-10.802-1.428-13.873-3.893L684.04,45.598z"/>
		<path fill="#F6D431" d="M760,83.261c0-0.009,0-0.021,0-0.03c2-9.862,5.611-25.174,6.129-32.571
			c0.953-13.625-7.268-18.104-15.703-18.104c-9.214,0-15.095,5.445-19.129,10.445h-1.946c2.559-7,4.771-14.208,5.884-20.826
			l3.253-18.589c-2.29-0.649-5.498-1.119-7.704-1.119c-5.97,0-12.549,1.322-16.735,3.658c-1.935,1.687-3.99,8.837-4.163,11.302
			l8.889-0.902l-16.536,80.587c2.161,0.649,5.128,0.912,8.241,0.912c4.023,0,8.202-0.39,11.095-0.908l7.456-41.655
			c2.885-4.153,7.928-9.473,12.729-9.473c4.153,0,5.612,3.244,5.277,8.045c-0.473,6.748-4.856,24.916-7.17,33.868
			c-0.217,3.115,2.833,9.604,5.136,11.939c2.85,0,7.321-0.523,11.401-1.288L760,83.261z"/>
	</g>
</g>
</svg>
