<?xml version="1.0" encoding="utf-8"?>
<!-- Generator: Adobe Illustrator 16.0.0, SVG Export Plug-In . SVG Version: 6.00 Build 0)  -->
<!DOCTYPE svg PUBLIC "-//W3C//DTD SVG 1.1//EN" "http://www.w3.org/Graphics/SVG/1.1/DTD/svg11.dtd">
<svg version="1.1" id="Layer_1" xmlns="http://www.w3.org/2000/svg" xmlns:xlink="http://www.w3.org/1999/xlink" x="0px" y="0px"
	 width="32px" height="32px" viewBox="0 0 32 32" enable-background="new 0 0 32 32" xml:space="preserve">
<g>
	<g>
		<path fill="none" d="M1.354,15.688c-0.21,0.004-0.379,0.178-0.375,0.388s0.178,0.378,0.389,0.375s0.378-0.178,0.375-0.388
			C1.739,15.853,1.565,15.684,1.354,15.688z"/>
		<path fill="#F6D431" d="M1.361,14.708C0.61,14.708,0,15.318,0,16.069c0,0.751,0.61,1.36,1.361,1.36s1.361-0.609,1.361-1.36
			C2.722,15.318,2.113,14.708,1.361,14.708z M1.375,16.828c-0.419,0.007-0.764-0.327-0.771-0.745
			c-0.007-0.418,0.326-0.764,0.745-0.771c0.418-0.007,0.763,0.326,0.771,0.744C2.126,16.474,1.793,16.819,1.375,16.828z"/>
		<path fill="#231F20" d="M1.348,15.312c-0.419,0.008-0.752,0.353-0.745,0.771c0.007,0.418,0.352,0.752,0.771,0.745
			c0.418-0.009,0.752-0.354,0.744-0.772C2.111,15.638,1.766,15.304,1.348,15.312z M1.368,16.451
			c-0.211,0.004-0.385-0.164-0.389-0.375s0.165-0.384,0.375-0.388s0.385,0.165,0.388,0.375C1.747,16.273,1.579,16.447,1.368,16.451z
			"/>
	</g>
</g>
<g>
	<g>
		<path d="M11.244,16.358c0.024-0.341,0.118-0.676,0.3-0.962c0.261-0.411,0.687-0.698,1.265-0.698c0.671,0,1.022,0.378,0.97,1.136
			c-0.026,0.368-0.138,0.741-0.348,1.038c-0.258,0.368-0.671,0.622-1.228,0.622C11.521,17.493,11.19,17.115,11.244,16.358z
			 M12.797,16.645c0.113-0.222,0.167-0.524,0.186-0.795c0.031-0.449-0.047-0.644-0.279-0.644c-0.195,0-0.356,0.141-0.462,0.346
			c-0.125,0.238-0.179,0.551-0.197,0.806c-0.031,0.443,0.07,0.623,0.297,0.623C12.546,16.98,12.696,16.845,12.797,16.645z"/>
		<path d="M15.868,14.79c0.007,0.135-0.022,0.395-0.059,0.535h-0.746l-0.48,2.844c-0.11,0.022-0.29,0.038-0.446,0.038
			c-0.119,0-0.248-0.011-0.333-0.038l0.55-2.844h-0.438c0.033-0.167,0.124-0.384,0.191-0.487c0.1-0.043,0.233-0.086,0.348-0.108
			l0.049-0.238c0.162-0.779,0.703-1.087,1.282-1.087c0.178,0,0.419,0.038,0.688,0.13c-0.015,0.216-0.126,0.567-0.238,0.773
			c-0.184,0-0.443-0.076-0.567-0.157l0.05-0.249c-0.026-0.011-0.053-0.017-0.08-0.017c-0.167,0-0.342,0.179-0.419,0.589l-0.06,0.314
			H15.868L15.868,14.79z"/>
		<path d="M16.337,16.434c-0.022,0.324,0.094,0.433,0.332,0.433c0.304,0,0.716-0.103,0.974-0.232
			c-0.011,0.151-0.104,0.399-0.195,0.54c-0.216,0.157-0.568,0.319-0.984,0.319c-0.66,0-0.948-0.356-0.902-1.021
			c0.031-0.444,0.202-0.957,0.497-1.298c0.258-0.292,0.612-0.476,1.061-0.476c0.535,0,0.814,0.26,0.784,0.698
			c-0.031,0.433-0.359,0.887-1.561,0.968L16.337,16.434z M17.154,15.422c0.01-0.141-0.037-0.243-0.173-0.243
			c-0.151,0-0.3,0.119-0.397,0.271c-0.078,0.113-0.134,0.303-0.159,0.427C17.044,15.833,17.141,15.612,17.154,15.422z"/>
		<path d="M19.818,16.358c0.024-0.341,0.118-0.676,0.301-0.962c0.261-0.411,0.687-0.698,1.266-0.698c0.67,0,1.021,0.378,0.969,1.136
			c-0.025,0.368-0.139,0.741-0.348,1.038c-0.259,0.368-0.672,0.622-1.229,0.622C20.096,17.493,19.766,17.115,19.818,16.358z
			 M21.373,16.645c0.112-0.222,0.166-0.524,0.185-0.795c0.031-0.449-0.047-0.644-0.279-0.644c-0.194,0-0.356,0.141-0.462,0.346
			c-0.125,0.238-0.18,0.551-0.197,0.806c-0.031,0.443,0.07,0.623,0.297,0.623C21.122,16.98,21.271,16.845,21.373,16.645z"/>
		<path d="M8.581,14.701c-0.4,0-0.68,0.215-0.866,0.549H7.634l0.082-0.468c-0.095-0.033-0.197-0.05-0.3-0.05
			c-0.089,0-0.178,0.009-0.263,0.027L7.039,15.32l0,0L6.954,15.73l-0.022,0.103h0l-0.566,2.786c0.09,0.027,0.214,0.043,0.344,0.043
			c0.167,0,0.342-0.014,0.462-0.035l0.198-1.199c0.1,0.037,0.239,0.064,0.379,0.064c0.416,0,0.797-0.184,1.037-0.447
			c0.298-0.325,0.471-0.854,0.502-1.308C9.337,15.007,9.013,14.701,8.581,14.701z M8.502,15.817
			c-0.021,0.308-0.109,0.714-0.32,0.952c-0.124,0.14-0.291,0.211-0.523,0.211c-0.076,0-0.161-0.018-0.204-0.033l0.237-1.303
			c0.17-0.265,0.33-0.389,0.525-0.389C8.422,15.255,8.532,15.39,8.502,15.817z"/>
		<path d="M11.476,14.736c-0.063-0.021-0.165-0.047-0.262-0.047c-0.422,0-0.639,0.312-0.754,0.645h-0.081l0.1-0.564
			c-0.095-0.032-0.197-0.044-0.299-0.044c-0.088,0-0.175,0.002-0.259,0.019L9.71,15.75l0,0l-0.328,1.62
			c0.084,0.026,0.219,0.042,0.343,0.042c0.168,0,0.342-0.014,0.457-0.035l0.255-1.561c0.131-0.254,0.344-0.438,0.604-0.438
			c0.119,0,0.279,0.038,0.377,0.098c0.044-0.092,0.076-0.238,0.086-0.384C11.515,14.958,11.502,14.828,11.476,14.736z"/>
		<path d="M20.051,14.736c-0.062-0.021-0.164-0.047-0.262-0.047c-0.422,0-0.639,0.312-0.754,0.645h-0.082l0.1-0.564
			c-0.094-0.032-0.196-0.044-0.299-0.044c-0.089,0-0.178,0.018-0.262,0.035l-0.191,0.948l0,0l-0.344,1.676
			c0.086,0.027,0.22,0.035,0.344,0.035c0.168,0,0.342-0.018,0.457-0.039l0.256-1.563c0.131-0.254,0.344-0.438,0.604-0.438
			c0.119,0,0.278,0.038,0.377,0.097c0.045-0.092,0.076-0.238,0.086-0.384C20.09,14.958,20.077,14.828,20.051,14.736z"/>
	</g>
	<g>
		<path fill="#F6D431" d="M23.396,14.157c0.141-0.07,0.47-0.141,0.67-0.141L23.92,14.79h0.73c0.007,0.059,0.004,0.108-0.001,0.167
			c-0.009,0.125-0.029,0.265-0.058,0.368h-0.779l-0.201,1.173c-0.043,0.244-0.004,0.368,0.245,0.368c0.157,0,0.321-0.038,0.51-0.097
			c-0.011,0.156-0.105,0.421-0.218,0.557c-0.246,0.113-0.492,0.167-0.693,0.167c-0.508,0-0.7-0.259-0.67-0.687
			c0.018-0.271,0.17-0.979,0.298-1.481h-0.417c0.033-0.168,0.125-0.384,0.191-0.487c0.095-0.043,0.223-0.086,0.332-0.108
			L23.396,14.157z"/>
		<path fill="#F6D431" d="M25.249,16.434c-0.022,0.324,0.095,0.433,0.332,0.433c0.304,0,0.716-0.103,0.974-0.232
			c-0.011,0.151-0.104,0.399-0.195,0.54c-0.216,0.157-0.568,0.319-0.984,0.319c-0.66,0-0.948-0.356-0.902-1.021
			c0.031-0.444,0.203-0.957,0.497-1.298c0.258-0.292,0.612-0.476,1.061-0.476c0.535,0,0.814,0.26,0.784,0.698
			c-0.031,0.433-0.359,0.887-1.561,0.968L25.249,16.434z M26.066,15.422c0.01-0.141-0.037-0.243-0.172-0.243
			c-0.152,0-0.301,0.119-0.398,0.271c-0.078,0.113-0.135,0.303-0.159,0.427C25.956,15.833,26.053,15.612,26.066,15.422z"/>
		<path fill="#F6D431" d="M28.502,15.233c-0.043-0.017-0.106-0.027-0.16-0.027c-0.179,0-0.337,0.092-0.438,0.232
			c-0.179,0.244-0.261,0.627-0.279,0.898c-0.025,0.368,0.108,0.541,0.405,0.541c0.276,0,0.656-0.107,0.893-0.222
			c-0.012,0.157-0.115,0.405-0.217,0.541c-0.217,0.151-0.523,0.298-0.886,0.298c-0.72,0-1.032-0.4-0.987-1.039
			c0.033-0.476,0.195-0.941,0.5-1.276c0.27-0.292,0.661-0.481,1.115-0.481c0.324,0,0.594,0.097,0.811,0.238
			c-0.018,0.254-0.109,0.551-0.239,0.795c-0.168,0-0.45-0.06-0.578-0.162L28.502,15.233z"/>
		<path fill="#F6D431" d="M31.666,16.803c0,0,0-0.001,0-0.002c0.084-0.41,0.234-1.048,0.256-1.356
			c0.04-0.568-0.303-0.754-0.654-0.754c-0.384,0-0.629,0.227-0.797,0.435H30.39c0.106-0.292,0.198-0.592,0.245-0.868l0.136-0.774
			c-0.096-0.027-0.229-0.047-0.321-0.047c-0.248,0-0.523,0.055-0.697,0.152c-0.08,0.07-0.166,0.368-0.174,0.471l0.371-0.038
			L29.26,17.38c0.09,0.026,0.214,0.038,0.344,0.038c0.168,0,0.342-0.017,0.462-0.038l0.312-1.736
			c0.119-0.173,0.33-0.395,0.529-0.395c0.174,0,0.234,0.135,0.221,0.335c-0.02,0.281-0.203,1.038-0.299,1.411
			c-0.01,0.129,0.117,0.4,0.214,0.497c0.118,0,0.305-0.021,0.475-0.054L31.666,16.803z"/>
	</g>
</g>
</svg>
