<?xml version="1.0" encoding="utf-8"?>
<!-- Generator: Adobe Illustrator 16.0.0, SVG Export Plug-In . SVG Version: 6.00 Build 0)  -->
<!DOCTYPE svg PUBLIC "-//W3C//DTD SVG 1.1//EN" "http://www.w3.org/Graphics/SVG/1.1/DTD/svg11.dtd">
<svg version="1.1" id="Layer_1" xmlns="http://www.w3.org/2000/svg" xmlns:xlink="http://www.w3.org/1999/xlink" x="0px" y="0px"
	 width="32px" height="32px" viewBox="0 0 32 32" enable-background="new 0 0 32 32" xml:space="preserve">
<g>
	<g>
		<path fill="#FFFFFF" d="M11.127,16.334c0.023-0.333,0.115-0.661,0.293-0.942c0.255-0.402,0.672-0.683,1.238-0.683
			c0.657,0,1,0.37,0.949,1.111c-0.025,0.36-0.135,0.726-0.34,1.016c-0.253,0.36-0.657,0.608-1.201,0.608
			C11.399,17.445,11.075,17.076,11.127,16.334z M12.647,16.615c0.11-0.217,0.163-0.513,0.181-0.778
			c0.031-0.439-0.045-0.629-0.273-0.629c-0.191,0-0.349,0.138-0.453,0.338c-0.122,0.233-0.175,0.54-0.192,0.789
			c-0.031,0.433,0.068,0.609,0.291,0.609C12.402,16.943,12.549,16.811,12.647,16.615z"/>
		<path fill="#FFFFFF" d="M15.653,14.8c0.006,0.132-0.022,0.386-0.058,0.524h-0.73l-0.47,2.783
			c-0.107,0.021-0.283,0.037-0.437,0.037c-0.117,0-0.243-0.012-0.326-0.037l0.539-2.783h-0.428c0.032-0.164,0.121-0.376,0.187-0.477
			c0.098-0.042,0.228-0.084,0.341-0.105l0.048-0.233c0.159-0.762,0.688-1.063,1.254-1.063c0.174,0,0.41,0.037,0.673,0.127
			c-0.014,0.212-0.123,0.555-0.233,0.756c-0.179,0-0.433-0.074-0.555-0.153l0.049-0.243c-0.026-0.011-0.052-0.016-0.078-0.016
			c-0.164,0-0.335,0.175-0.411,0.577L14.959,14.8H15.653L15.653,14.8z"/>
		<path fill="#FFFFFF" d="M16.111,16.409c-0.022,0.317,0.093,0.423,0.325,0.423c0.297,0,0.701-0.101,0.953-0.228
			c-0.01,0.147-0.102,0.391-0.191,0.528c-0.211,0.154-0.556,0.312-0.963,0.312c-0.646,0-0.928-0.349-0.882-1
			c0.031-0.434,0.198-0.937,0.486-1.27c0.252-0.286,0.599-0.466,1.038-0.466c0.523,0,0.797,0.254,0.767,0.683
			c-0.029,0.423-0.352,0.868-1.526,0.947L16.111,16.409z M16.911,15.419c0.01-0.138-0.036-0.238-0.169-0.238
			c-0.148,0-0.293,0.117-0.389,0.265c-0.077,0.111-0.132,0.296-0.156,0.417C16.803,15.821,16.898,15.604,16.911,15.419z"/>
		<path fill="#FFFFFF" d="M19.518,16.334c0.024-0.333,0.116-0.661,0.295-0.942c0.255-0.402,0.672-0.683,1.238-0.683
			c0.656,0,1,0.37,0.948,1.111c-0.024,0.36-0.136,0.726-0.341,1.016c-0.253,0.36-0.657,0.608-1.201,0.608
			C19.789,17.445,19.467,17.076,19.518,16.334z M21.039,16.615c0.11-0.217,0.162-0.513,0.181-0.778
			c0.03-0.439-0.046-0.629-0.272-0.629c-0.191,0-0.35,0.138-0.453,0.338c-0.122,0.233-0.176,0.54-0.192,0.789
			c-0.03,0.433,0.068,0.609,0.29,0.609C20.794,16.943,20.939,16.811,21.039,16.615z"/>
		<path fill="#FFFFFF" d="M8.521,14.713c-0.392,0-0.665,0.21-0.847,0.537h-0.08l0.08-0.458c-0.093-0.032-0.192-0.049-0.293-0.049
			c-0.087,0-0.174,0.008-0.257,0.026l-0.111,0.55l0,0l-0.084,0.402l-0.022,0.101h0l-0.554,2.726
			c0.088,0.027,0.209,0.043,0.336,0.043c0.164,0,0.334-0.014,0.452-0.035l0.193-1.174c0.098,0.037,0.234,0.063,0.371,0.063
			c0.407,0,0.78-0.18,1.015-0.438c0.292-0.318,0.46-0.835,0.492-1.279C9.262,15.013,8.945,14.713,8.521,14.713z M8.444,15.806
			c-0.021,0.301-0.107,0.698-0.313,0.932c-0.121,0.137-0.284,0.206-0.512,0.206c-0.074,0-0.158-0.017-0.199-0.032l0.232-1.275
			c0.166-0.259,0.323-0.381,0.514-0.381C8.367,15.255,8.474,15.388,8.444,15.806z"/>
		<path fill="#FFFFFF" d="M11.354,14.747c-0.062-0.021-0.161-0.046-0.256-0.046c-0.413,0-0.625,0.305-0.738,0.631h-0.079
			l0.097-0.552c-0.093-0.032-0.192-0.043-0.292-0.043c-0.086,0-0.172,0.002-0.253,0.019L9.627,15.74l0,0l-0.321,1.585
			c0.083,0.025,0.215,0.041,0.336,0.041c0.165,0,0.334-0.014,0.447-0.034l0.25-1.528c0.128-0.249,0.337-0.428,0.591-0.428
			c0.116,0,0.272,0.038,0.369,0.096c0.043-0.09,0.075-0.232,0.084-0.375C11.393,14.964,11.38,14.837,11.354,14.747z"/>
		<path fill="#FFFFFF" d="M19.746,14.747c-0.062-0.021-0.161-0.046-0.257-0.046c-0.413,0-0.625,0.305-0.737,0.631h-0.08l0.098-0.552
			c-0.092-0.032-0.193-0.043-0.293-0.043c-0.087,0-0.174,0.017-0.256,0.034l-0.188,0.928l0,0l-0.336,1.641
			c0.084,0.026,0.215,0.034,0.336,0.034c0.164,0,0.334-0.018,0.447-0.038l0.25-1.53c0.129-0.249,0.336-0.429,0.591-0.429
			c0.116,0,0.272,0.037,0.368,0.095c0.045-0.09,0.075-0.233,0.085-0.375C19.783,14.964,19.771,14.837,19.746,14.747z"/>
	</g>
	<g>
		<path fill="#F6D431" d="M23.02,14.181c0.138-0.069,0.459-0.138,0.655-0.138L23.531,14.8h0.715c0.007,0.058,0.004,0.105,0,0.164
			c-0.01,0.122-0.029,0.259-0.057,0.36h-0.764l-0.196,1.148c-0.042,0.239-0.004,0.36,0.239,0.36c0.154,0,0.314-0.037,0.5-0.095
			c-0.011,0.153-0.104,0.412-0.213,0.545c-0.242,0.11-0.482,0.163-0.68,0.163c-0.496,0-0.685-0.253-0.654-0.672
			c0.017-0.265,0.166-0.958,0.291-1.449h-0.408c0.032-0.165,0.122-0.376,0.188-0.477c0.092-0.042,0.218-0.084,0.324-0.105
			L23.02,14.181z"/>
		<path fill="#F6D431" d="M24.832,16.409c-0.021,0.317,0.093,0.423,0.325,0.423c0.297,0,0.7-0.101,0.952-0.228
			c-0.01,0.147-0.101,0.391-0.191,0.528c-0.211,0.154-0.556,0.312-0.963,0.312c-0.646,0-0.928-0.349-0.883-1
			c0.031-0.434,0.199-0.937,0.486-1.27c0.252-0.286,0.6-0.466,1.038-0.466c0.523,0,0.797,0.254,0.767,0.683
			c-0.029,0.423-0.352,0.868-1.526,0.947L24.832,16.409z M25.632,15.419c0.01-0.138-0.036-0.238-0.168-0.238
			c-0.149,0-0.294,0.117-0.39,0.265c-0.076,0.111-0.133,0.296-0.156,0.417C25.523,15.821,25.619,15.604,25.632,15.419z"/>
		<path fill="#F6D431" d="M28.016,15.234c-0.043-0.017-0.104-0.027-0.157-0.027c-0.175,0-0.329,0.09-0.429,0.227
			c-0.176,0.239-0.256,0.614-0.273,0.879c-0.025,0.36,0.105,0.528,0.396,0.528c0.271,0,0.643-0.104,0.873-0.217
			c-0.012,0.154-0.112,0.396-0.212,0.529c-0.212,0.148-0.513,0.292-0.866,0.292c-0.705,0-1.01-0.392-0.967-1.016
			c0.033-0.466,0.191-0.921,0.49-1.249c0.264-0.286,0.646-0.471,1.091-0.471c0.317,0,0.581,0.095,0.793,0.232
			c-0.017,0.249-0.106,0.54-0.234,0.778c-0.164,0-0.44-0.058-0.565-0.158L28.016,15.234z"/>
		<path fill="#F6D431" d="M31.111,16.77c0,0,0,0,0-0.002c0.082-0.401,0.229-1.025,0.25-1.327c0.039-0.556-0.296-0.738-0.64-0.738
			c-0.376,0-0.616,0.222-0.78,0.426h-0.079c0.104-0.285,0.194-0.579,0.24-0.849l0.133-0.758c-0.094-0.027-0.225-0.046-0.314-0.046
			c-0.243,0-0.513,0.054-0.683,0.149c-0.078,0.069-0.162,0.36-0.17,0.461l0.363-0.037l-0.675,3.285
			c0.088,0.026,0.21,0.038,0.337,0.038c0.164,0,0.334-0.017,0.451-0.038l0.305-1.698c0.117-0.169,0.323-0.386,0.519-0.386
			c0.17,0,0.229,0.132,0.216,0.328c-0.02,0.275-0.199,1.016-0.293,1.381c-0.01,0.126,0.115,0.392,0.21,0.486
			c0.115,0,0.298-0.021,0.464-0.053L31.111,16.77z"/>
	</g>
</g>
<g>
	<g>
		<g>
			<path fill="none" d="M1.324,15.627c-0.207,0.003-0.37,0.173-0.367,0.379c0.004,0.206,0.173,0.37,0.38,0.366
				c0.206-0.004,0.37-0.174,0.366-0.379C1.699,15.788,1.53,15.624,1.324,15.627z"/>
			<path fill="#F6D431" d="M1.33,14.67C0.596,14.67,0,15.266,0,16c0,0.734,0.596,1.33,1.33,1.33c0.735,0,1.33-0.596,1.33-1.33
				C2.66,15.266,2.065,14.67,1.33,14.67z M1.343,16.741c-0.409,0.007-0.747-0.319-0.753-0.728c-0.007-0.409,0.318-0.747,0.727-0.754
				s0.747,0.318,0.753,0.727C2.078,16.396,1.752,16.733,1.343,16.741z"/>
			<path fill="#231F20" d="M1.317,15.26c-0.409,0.007-0.734,0.345-0.727,0.753c0.007,0.409,0.344,0.735,0.753,0.728
				c0.409-0.008,0.735-0.345,0.727-0.754C2.063,15.578,1.726,15.252,1.317,15.26z M1.337,16.373
				c-0.207,0.004-0.376-0.161-0.38-0.366c-0.003-0.206,0.16-0.376,0.367-0.379c0.206-0.004,0.375,0.16,0.379,0.366
				C1.707,16.199,1.543,16.369,1.337,16.373z"/>
		</g>
	</g>
	<path fill="#FFFFFF" d="M1.321,15.622c-0.206,0.003-0.37,0.173-0.366,0.379c0.003,0.206,0.173,0.37,0.379,0.366
		c0.206-0.004,0.37-0.174,0.366-0.38C1.697,15.782,1.527,15.618,1.321,15.622z"/>
</g>
</svg>
